# xmcd CD database file
#
# Track frame offsets:
#	150
#	11406
#	21603
#	34845
#	43370
#	53531
#	65843
#	75823
#	88850
#	101454
#	115127
#	132797
#	146490
#	160729
#	172486
#	186360
#	199701
#	210934
#	224247
#	240290
#	253264
#	265897
#	278555
#
# Disc length: 3869 seconds
#
# Revision: 2
# Processed by: cddbd v1.5.1PL0 Copyright (c) Steve Scherf et al.
# Submitted via: CDex 1.51
#
DISCID=500f1b17
DTITLE=Various Artist - 091 Country Forever CD3
DYEAR=1900
DGENRE=Country
TTITLE0=Donna Fargo - The Happiest Girl In The Whole USA
TTITLE1=Johnny Cash - You Win Again
TTITLE2=Patti Page - Tennessee Waltz
TTITLE3=Conway Twitty - Blue Is The Way That I Feel
TTITLE4=Connie Smith - Once A Day
TTITLE5=Ray Price - Let It Rain, Let Her Cry
TTITLE6=Jan Howard - The One You Slip Around With
TTITLE7=STU Stevens - Love Me Tender
TTITLE8=Kitty Wells - Makin' Believe
TTITLE9=Willie Nelson - Home Is Where You're Happy
TTITLE10=Judy Rodman - Until I Met You
TTITLE11=Bobby Rice - You Lay So Easy On My Mind
TTITLE12=Billy Jo Spears - I'll Never Be Free
TTITLE13=Donna Fargo - Funny Face
TTITLE14=Tony Adams-Rosa - Come Back And Hold Me
TTITLE15=Jennifer Weatherly - In The Name Of Love
TTITLE16=Merle Kilgore - Love Has Madeyou Beautiful
TTITLE17=T. Graham Brown - I Tell It Like It Used To Be
TTITLE18=Narvel Felts - Reconsider Me
TTITLE19=Jack Greene - Statue Of A Fool
TTITLE20=Carl Smith - Let Old Mother Have Her Way
TTITLE21=Dolly Parton - Little Blossom
TTITLE22=Bobby Lewis - How Long Has It Been
EXTD=
EXTT0=
EXTT1=
EXTT2=
EXTT3=
EXTT4=
EXTT5=
EXTT6=
EXTT7=
EXTT8=
EXTT9=
EXTT10=
EXTT11=
EXTT12=
EXTT13=
EXTT14=
EXTT15=
EXTT16=
EXTT17=
EXTT18=
EXTT19=
EXTT20=
EXTT21=
EXTT22=
PLAYORDER=
